<?xml version="1.0" encoding="utf-8"?>
<svg xmlns="http://www.w3.org/2000/svg" height="48" width="48" viewBox="0 0 48 48">
  <g>
    <path id="path1" transform="rotate(0,24,24) translate(11,13.8359519592489) scale(0.812473849303804,0.812473849303804)  " fill="#FFFFFF" d="M7.7807095,8.6060009C7.2276623,8.6060009 6.779658,9.0539989 6.779658,9.6069927 6.779658,10.160002 7.2276623,10.608 7.7807095,10.608 8.3336961,10.608 8.7816999,10.160002 8.7816999,9.6069927 8.7816999,9.0539989 8.3336961,8.6060009 7.7807095,8.6060009z M5.5006482,2.3829951C8.1146981,2.3650048 10.65575,3.4750054 12.065743,4.3879995 12.305736,4.3569937 12.549759,4.3309927 12.800739,4.3059988 12.958761,6.8139939 15.042775,8.8079967 17.587794,8.8079967 19.57183,8.8079967 21.277848,7.6000047 22.01089,5.8789964 24.0169,6.9470048 25.577958,8.4559917 26.444974,10.220991 26.79996,10.158003 27.169959,10.050993 27.528973,9.8710003 27.691939,9.7889995 27.837937,9.7049999 27.962939,9.6150036 27.298928,9.3370037 26.754975,8.8659954 26.459927,8.2740002 25.984946,7.3260026 26.334925,6.617003 26.776948,6.2980027 27.370951,5.8690019 28.228995,5.988997 28.820983,6.5809922 29.443001,7.2010026 29.78102,7.9300065 29.782973,8.630003 30.154986,8.5480022 30.586022,8.3439922 30.899016,7.8729997 31.084992,7.5980058 31.456031,7.5229936 31.732035,7.7069993 32.009991,7.891005 32.084031,8.2640057 31.900006,8.5399914 31.345006,9.3719921 30.415976,9.8610058 29.380013,9.8829937 29.125981,10.246992 28.716002,10.619993 28.064992,10.945997 27.671981,11.141996 27.274941,11.272001 26.887973,11.358 27.087928,12.018995 27.196936,12.705991 27.196936,13.410993 27.196936,15.710004 26.076926,17.809002 24.23193,19.421001 23.987908,21.184994 23.59093,22.884991 22.991921,24.503994 22.874917,24.816998 22.571871,25.02 22.239897,25.02L18.875836,25.02C18.341832,25.02 17.954802,24.505993 18.109833,23.995998 18.287816,23.397991 18.447852,22.800991 18.595864,22.208996 17.454797,22.475002 16.242804,22.617001 14.985767,22.617001 13.906772,22.617001 12.858783,22.51199 11.859747,22.313 11.670718,23.057003 11.445739,23.787991 11.181759,24.503994 11.066705,24.816998 10.763723,25.02 10.429734,25.02L7.0666492,25.02C6.5336825,25.02 6.1466534,24.505993 6.2986328,23.995998 6.652642,22.814999 6.9396941,21.643993 7.1726687,20.484997 5.7846486,19.613003 4.6606094,18.512997 3.8966214,17.26199 3.2536072,17.220989 2.7145981,17.145 2.3756041,17.012997 0.56960954,16.318996 0.11458605,13.695996 0.0025847386,12.156004 -0.03843124,11.559996 0.41360148,11.048002 1.0095571,11.007002 1.8265853,10.951994 2.5576136,10.761991 3.2336487,10.464994 3.8126361,8.729002 4.9576718,7.2279954 6.7366883,6.1300034 5.8196833,5.055007 5.1066606,3.5630028 4.9776303,2.4020071 5.1516444,2.3910057 5.3266346,2.384002 5.5006482,2.3829951z M17.587794,1.0299985C17.366843,1.0299984,17.188801,1.2100063,17.188801,1.4309991L17.188801,1.763C16.641797,1.914001 16.228827,2.354995 16.169804,2.914001 16.113774,3.4700005 16.42878,4.1990042 17.504845,4.423995 17.97885,4.522994 18.240817,4.7640066 18.209811,5.0689993 18.18381,5.3130026 17.962798,5.5590048 17.587794,5.5590048 17.120806,5.5590048 16.877822,5.3300009 16.811782,5.1329946 16.740796,4.9219961 16.514781,4.8099966 16.304816,4.8789968 16.09583,4.9490042 15.982791,5.1759939 16.052798,5.3869924 16.1778,5.762999 16.547801,6.1889939 17.188801,6.3179917L17.188801,6.6340012C17.188801,6.8569932 17.366843,7.0350022 17.587794,7.0350022 17.810818,7.0350022 17.987824,6.8569932 17.987824,6.6340012L17.987824,6.3020005C18.535805,6.1509995 18.947859,5.7100053 19.006819,5.151 19.063826,4.5959921 18.74882,3.8670034 17.669825,3.641006 17.198811,3.5420067 16.93483,3.3020012 16.967789,2.9960015 16.99379,2.7519982 17.213826,2.505996 17.587794,2.5059957 18.056855,2.505996 18.298802,2.7369988 18.365819,2.9340048 18.435828,3.1430046 18.662821,3.2570031 18.871869,3.1860037 19.080857,3.1159966 19.193833,2.8890068 19.123826,2.6800074 18.998824,2.3029933 18.629861,1.8789973 17.987824,1.7469935L17.987824,1.4309991C17.987824,1.2100063,17.810818,1.0299984,17.587794,1.0299985z M17.587794,0C19.799861,-1.9255504E-07 21.590901,1.792007 21.590901,4.003005 21.590901,6.2140031 19.799861,8.0070019 17.587794,8.0070019 15.376764,8.0070019 13.584746,6.2140031 13.584746,4.003005 13.584746,1.792007 15.376764,-1.9255504E-07 17.587794,0z" />
  </g>
</svg>

