<?xml version="1.0" encoding="utf-8"?>
<svg xmlns="http://www.w3.org/2000/svg" height="48" width="48" viewBox="0 0 48 48">
  <g>
    <path id="path1" transform="rotate(0,24,24) translate(11,12.8338132500648) scale(0.8125,0.8125)  " fill="#FFFFFF" d="M18.426025,0C25.913025,-4.8468792E-08 32,6.1669937 32,13.741 32,21.319005 25.913025,27.485999 18.426025,27.485999 15.667999,27.485999 13.104004,26.643989 10.960022,25.207007L13.22702,21.690984C14.718018,22.694005 16.506012,23.284001 18.426025,23.284001 23.620026,23.284001 27.848022,19.002996 27.848022,13.741 27.848022,8.4829731 23.620026,4.2029734 18.426025,4.2029734 14.284027,4.2029734 10.796021,6.9379898 9.5350037,10.711001L14.376007,10.767978 7.053009,22.125981 0,10.591983 5.2090149,10.653995C6.5980225,4.5649729,11.991028,-4.8468792E-08,18.426025,0z" />
  </g>
</svg>

